<?xml version="1.0" encoding="utf-8"?>
<!-- Generator: Adobe Illustrator 20.1.0, SVG Export Plug-In . SVG Version: 6.00 Build 0)  -->
<svg version="1.1"
	 id="svg2" xmlns:cc="http://creativecommons.org/ns#" xmlns:dc="http://purl.org/dc/elements/1.1/" xmlns:rdf="http://www.w3.org/1999/02/22-rdf-syntax-ns#" xmlns:svg="http://www.w3.org/2000/svg"
	 xmlns="http://www.w3.org/2000/svg" xmlns:xlink="http://www.w3.org/1999/xlink" x="0px" y="0px" viewBox="0 0 290 217.5"
	 style="enable-background:new 0 0 290 217.5;" xml:space="preserve">
<style type="text/css">
	.st0{fill:#F68D11;}
</style>
<g id="g10" transform="matrix(1.25,0,0,-1.25,0,217.5)">
	<g id="g12" transform="scale(0.1,0.1)">
		<path id="path14" class="st0" d="M1289.7,1140l-269.7,90v390l270-80L1289.7,1140"/>
		<path id="path16" class="st0" d="M1360,1540l270,80l-0.9-389.7L1360,1140V1540"/>
		<path id="path18" class="st0" d="M1575,1662.2l-251.6,77.8l-248.4-77.8l248.7-66.7L1575,1662.2"/>
		<path id="path20" class="st0" d="M1969.7,1140l-269.7,90v390l270-80L1969.7,1140"/>
		<path id="path22" class="st0" d="M2040,1540l270,80l-0.9-389.7L2040,1140V1540"/>
		<path id="path24" class="st0" d="M2255,1662.2l-251.6,77.8l-248.4-77.8l248.7-66.7L2255,1662.2"/>
		<path id="path26" class="st0" d="M270,970L0,1050V660l269.7-90L270,970"/>
		<path id="path28" class="st0" d="M340,970l270,80l-0.9-389.7L340,570V970"/>
		<path id="path30" class="st0" d="M555,1092.2L303.4,1170L55,1092.2l248.7-66.7L555,1092.2"/>
		<path id="path32" class="st0" d="M949.7,570L680,660v390l270-80L949.7,570"/>
		<path id="path34" class="st0" d="M1020,970l270,80l-0.9-389.7L1020,570V970"/>
		<path id="path36" class="st0" d="M1235,1092.2L983.4,1170L735,1092.2l248.7-66.7L1235,1092.2"/>
		<path id="path38" class="st0" d="M609.7,0L340,90v390l270-80L609.7,0"/>
		<path id="path40" class="st0" d="M680,400l270,80l-0.9-389.7L680,0V400"/>
		<path id="path42" class="st0" d="M895,522.2L643.4,600L395,522.2l248.7-66.7L895,522.2"/>
	</g>
</g>
</svg>
