<?xml version="1.0" encoding="utf-8"?>
<!-- Generator: Adobe Illustrator 20.1.0, SVG Export Plug-In . SVG Version: 6.00 Build 0)  -->
<svg version="1.1" id="Layer_1" xmlns="http://www.w3.org/2000/svg" xmlns:xlink="http://www.w3.org/1999/xlink" x="0px" y="0px"
	 viewBox="0 0 233.8 289.9" style="enable-background:new 0 0 233.8 289.9;" xml:space="preserve">
<style type="text/css">
	.st0{fill:#6762A6;}
	.st1{fill:#FFFFFF;}
</style>
<g id="XMLID_1_">
	<path id="XMLID_12_" class="st0" d="M206.2,289.9H27.6C12.4,289.9,0,277.5,0,262.3V27.6C0,12.4,12.4,0,27.6,0h178.5
		c15.3,0,27.7,12.4,27.7,27.6v234.6C233.8,277.5,221.4,289.9,206.2,289.9z"/>
	<path id="XMLID_16_" class="st1" d="M146.5,250V134.9c0,0,7.5-27.6-92.2,11.3c-0.2,0.5-0.2-106.5-0.2-106.5l32.6-0.2V108
		c0,0,91.2-35.9,91.2,27.3V250L146.5,250L146.5,250z M165.1,81h-34.6c12.4-15.2,23.7-41.3,23.7-41.3H190
		C190,39.7,183.9,56.7,165.1,81z M54.7,249.8v-65.6L87.5,217L54.7,249.8z"/>
</g>
</svg>
