<?xml version="1.0" encoding="utf-8"?>
<!-- Generator: Adobe Illustrator 20.1.0, SVG Export Plug-In . SVG Version: 6.00 Build 0)  -->
<svg version="1.1" id="Layer_1" xmlns="http://www.w3.org/2000/svg" xmlns:xlink="http://www.w3.org/1999/xlink" x="0px" y="0px"
	 viewBox="0 0 187.2 253.8" style="enable-background:new 0 0 187.2 253.8;" xml:space="preserve">
<style type="text/css">
	.st0{fill:#0074BD;}
	.st1{fill:#EA2D2E;}
</style>
<g>
	<path id="XMLID_16_" class="st0" d="M60.3,196.3c0,0-9.7,5.6,6.9,7.5c20.1,2.3,30.4,2,52.5-2.2c0,0,5.8,3.7,14,6.8
		C84,229.7,21.3,207.2,60.3,196.3L60.3,196.3z"/>
	<path id="XMLID_15_" class="st0" d="M54.2,168.5c0,0-10.9,8.1,5.7,9.8c21.5,2.2,38.4,2.4,67.8-3.3c0,0,4.1,4.1,10.4,6.4
		C78.1,198.9,11.2,182.7,54.2,168.5L54.2,168.5z"/>
	<path id="XMLID_14_" class="st1" d="M105.4,121.3c12.2,14.1-3.2,26.8-3.2,26.8s31.1-16,16.8-36.1c-13.3-18.7-23.6-28,31.8-60.1
		C150.8,51.8,63.9,73.5,105.4,121.3L105.4,121.3z"/>
	<path id="XMLID_13_" class="st0" d="M171.1,216.8c0,0,7.2,5.9-7.9,10.5c-28.7,8.7-119.4,11.3-144.5,0.3c-9-3.9,7.9-9.4,13.3-10.6
		c5.6-1.2,8.7-1,8.7-1c-10.1-7.1-65.1,13.9-27.9,20C114,252.5,197.4,228.7,171.1,216.8L171.1,216.8z"/>
	<path id="XMLID_12_" class="st0" d="M64.9,139.7c0,0-46.1,11-16.3,14.9c12.6,1.7,37.6,1.3,61-0.7c19.1-1.6,38.3-5,38.3-5
		s-6.7,2.9-11.6,6.2C89.4,167.5-1,161.7,25,149.1C47,138.5,64.9,139.7,64.9,139.7L64.9,139.7z"/>
	<path id="XMLID_11_" class="st0" d="M147.7,185.9c47.6-24.7,25.6-48.5,10.2-45.3c-3.8,0.8-5.4,1.5-5.4,1.5s1.4-2.2,4.1-3.1
		c30.4-10.7,53.8,31.5-9.8,48.2C146.7,187.2,147.5,186.5,147.7,185.9L147.7,185.9z"/>
	<path id="XMLID_10_" class="st1" d="M119,0c0,0,26.4,26.4-25,66.9c-41.2,32.5-9.4,51.1,0,72.3c-24.1-21.7-41.7-40.8-29.9-58.6
		C81.5,54.6,129.6,41.9,119,0L119,0z"/>
	<path id="XMLID_9_" class="st0" d="M69.6,253c45.7,2.9,115.9-1.6,117.6-23.3c0,0-3.2,8.2-37.8,14.7c-39,7.3-87.1,6.5-115.7,1.8
		C33.7,246.2,39.6,251.1,69.6,253L69.6,253z"/>
</g>
</svg>
