<?xml version="1.0" encoding="utf-8"?>
<!-- Generator: Adobe Illustrator 20.1.0, SVG Export Plug-In . SVG Version: 6.00 Build 0)  -->
<svg version="1.1" id="Layer_1" xmlns="http://www.w3.org/2000/svg" xmlns:xlink="http://www.w3.org/1999/xlink" x="0px" y="0px"
	 viewBox="0 0 54.7 56.3" style="enable-background:new 0 0 54.7 56.3;" xml:space="preserve">
<style type="text/css">
	.st0{fill:#83CD29;}
</style>
<g id="XMLID_1_">
	<path id="XMLID_5_" class="st0" d="M54.7,17c0-1.1-0.6-2-1.5-2.6L28.8,0.4C28.4,0.1,28,0,27.5,0h-0.3c-0.5,0-0.9,0.1-1.3,0.4
		L1.5,14.4C0.6,15,0,15.9,0,17l0.1,37.8c0,0.5,0.3,1,0.7,1.3c0.5,0.3,1,0.3,1.5,0l14.5-8.3c0.9-0.5,1.5-1.5,1.5-2.6V27.6
		c0-1.1,0.6-2,1.5-2.6l6.2-3.6c0.5-0.3,1-0.4,1.5-0.4c0.5,0,1,0.1,1.5,0.4L35,25c0.9,0.5,1.5,1.5,1.5,2.6v17.7c0,1.1,0.6,2,1.5,2.6
		l14.5,8.3c0.5,0.3,1,0.3,1.5,0c0.4-0.3,0.7-0.7,0.7-1.3L54.7,17"/>
</g>
</svg>
