<?xml version="1.0" encoding="utf-8"?>
<!-- Generator: Adobe Illustrator 20.1.0, SVG Export Plug-In . SVG Version: 6.00 Build 0)  -->
<svg version="1.1" id="Layer_1" xmlns="http://www.w3.org/2000/svg" xmlns:xlink="http://www.w3.org/1999/xlink" x="0px" y="0px"
	 viewBox="0 0 500 500" style="enable-background:new 0 0 500 500;" xml:space="preserve">
<style type="text/css">
	.st0{fill:#EA77FF;}
	.st1{fill:#261300;}
</style>
<rect id="XMLID_3_" class="st0" width="500" height="500"/>
<rect id="XMLID_5_" x="22" y="22" class="st1" width="456" height="456"/>
<g id="XMLID_31_">
	<g id="XMLID_73_">
		<path id="XMLID_74_" class="st0" d="M130.5,121.8c0-1.7,0.3-2.4,1.8-2.4c11.2-0.3,33.4-0.7,55.9-0.7c58,0,80.1,33.7,80.4,73.6
			c0,54.7-40.8,75.4-84.3,75.4c-8.3,0-16.3,0-18.3,0v78.1c0,2.1-0.6,2.8-2.1,2.8h-31.4c-1.5,0-2.1-0.7-2.1-2.4V121.8z M166,234.4
			c2.4,0.3,6.8,0.7,19.2,0.7c23.4,0,45.9-6.7,45.9-41.1c0-27.5-15.1-41.7-42.9-41.7c-11.5,0-19.8,0.3-22.2,0.7V234.4z"/>
	</g>
</g>
<g id="XMLID_1_">
	<g id="XMLID_62_">
		<path id="XMLID_63_" class="st0" d="M373.6,175.5c1.2-0.1,2.8,0,4,0.3c1.5,0.3,1.9,0.7,1.9,3.4v29.8c0,1.7-0.6,2.4-2.5,2.4
			c-17.7-0.7-26-1.2-38.6,3.9v129.4c0,2.1-0.6,2.8-2.5,2.8h-32.5c-1.9,0-2.5-0.7-2.5-2.8V229c0-15.1-0.6-26.6-1.5-37.9
			c-0.3-1.4,0.3-2.1,1.9-2.1C301.2,189,331.1,177.8,373.6,175.5z"/>
	</g>
</g>
</svg>
