<?xml version="1.0" encoding="utf-8"?>
<!-- Generator: Adobe Illustrator 20.1.0, SVG Export Plug-In . SVG Version: 6.00 Build 0)  -->
<svg version="1.1" id="Layer_1" xmlns="http://www.w3.org/2000/svg" xmlns:xlink="http://www.w3.org/1999/xlink" x="0px" y="0px"
	 viewBox="0 0 365 356" style="enable-background:new 0 0 365 356;" xml:space="preserve">
<style type="text/css">
	.st0{fill-rule:evenodd;clip-rule:evenodd;}
	.st1{stroke:#000000;stroke-miterlimit:10;}
	.st2{fill:#FFFFFF;}
	.st3{font-family:'Ubuntu';}
	.st4{font-size:206px;}
</style>
<g id="XMLID_2_">
	<path d="M345.1,19.4C331.8,6.5,315.2,0,296.6,0H68.4C49.1,0,33.2,6.5,19.9,19.4C6.6,32.4,0,48.5,0,66.7v222.7
		c0,18.8,6.6,34.3,19.9,47.2C33.2,349.5,49.8,356,68.4,356h59.9c-0.3-2.6,1.2-5.5,4.5-5.6c-0.5-2.9-0.2-6,0-8.6
		c0.3-5.3,0.8-10.7,1.7-15.9c-4.5-0.3-9-1-13.4-1.8c-9.9-2-21.3-4.4-29.7-10.3c-9-6.2-15.6-16.1-20.6-25.6
		c-3.1-5.9-6-10.8-10.9-15.3c-2.1-1.9-4.1-3.8-6-5.8c-1.6-0.6-3.3-1.2-4.9-2c-5.4-2.7-6.4-8.7-1.9-12.9c4-3.9,10.8-2.9,15.7-1.8
		c5.1,1.1,10.3,3,14.5,6.2c1.2,1,1.7,2.1,1.7,3.2c6.6,4.5,11.8,11.6,17.3,16.8c8.2,7.9,20,10.8,30.9,13.6
		c4.1-7.7,8.4-15.3,13.7-22.3c-22.4-5-43.9-16.4-58.8-33.5c-9-10.4-17.3-23.9-20.9-37.6c-0.1-0.1-0.1-0.3-0.2-0.4
		c-5.9-16.1-2.6-34.6-0.7-51.2c1.8-16.6,9.6-30.1,18.7-43.3c0.5-3.3,1.3-6.5,1.3-9.8c0-1.2,0.4-2.2,1-3c-0.9-5.2,0-10.3,5-14.6
		c1.6-1.4,3.5-1.5,5.1-1c8.1,0,15.3,3,22.2,6.7c3.6,1.3,7.2,2.7,10.3,5c1.6,0.2,2.8,1,3.5,2.1c7,2.9,14,4.2,21.7,3.5
		c0.5-0.4,1.1-0.7,1.8-0.9c0.8-1.2,2.1-2,3.9-2c0.8,0,1.5,0.2,2.1,0.4c0.3-0.1,0.7-0.1,1.1-0.1c0.8,0,1.6,0.2,2.2,0.5
		c8.5-2.1,16.9-4.8,25.8-5.4c10.9-0.8,20.7,3.8,31.4,4.7c4.9,0.4,10.7,1,16.3,0.6c0.2-0.5,0.6-1,1-1.4c4.2-3.5,8.6-7.1,13.9-8.8
		c0.8-0.3,1.6-0.3,2.3-0.2c0.8-0.9,2-1.5,3.5-1.5c1.1,0,1.9,0.3,2.7,0.7c3.4-2.2,7-4.1,11.1-5c13.8-3,18.1,9.2,17.9,20.6
		c-0.1,3.6-0.4,7.3-0.9,10.9c1.7,1.8,1.8,4.8,0.4,6.7c0.9,2.6,1.3,5.3,1.3,8.1c3.5,6.4,5.7,13.1,6.7,20.2c0.3,0.6,0.6,1.1,0.9,1.7
		c2,3.4,3.7,7,5.1,10.7c4.5,10.5,6.4,22.6,5.4,34.3c-0.4,12.6-2.8,25.5-8.3,36.8c-3.3,6.7-7.6,12.4-12.7,17.4
		c-1.1,3.1-2.4,6.2-4.2,9c-4.3,6.7-11.1,8.3-18.3,8.2c-4,2.8-8,5.5-12.7,7.3c-8.4,3.2-17.9,2.7-26.8,2.7c-0.3,0-0.6,0.1-0.9,0.1
		c3.6,1.3,6.9,3.1,9.6,5.2c6,4.7,4.6,13-1.8,14.7c0.3,0.9,0.7,1.9,0.9,2.8c1.5,1.4,3,2.8,4.5,4.1c3.4,2.8,1.2,6.8-2,7.9
		c1.4,11.5,0.2,23.2-0.4,35.1c-0.2,3.8,0.3,8-0.2,12c2.6,0.2,4.6,2.4,4.7,5c0,0.7-0.1,1.4-0.4,2h60.9c19.2,0,35.2-6.5,48.4-19.4
		c13.3-12.9,19.9-29.1,19.9-47.2V66.7C365,47.9,358.4,32.4,345.1,19.4z"/>
</g>
<g id="XMLID_1_">
	<path id="XMLID_3_" class="st0" d="M182.5,0C81.7,0,0,81.7,0,182.5c0,80.6,52.3,149,124.8,173.2c9.1,1.7,12.5-4,12.5-8.8
		c0-4.4-0.2-18.7-0.2-34c-50.8,11-61.5-21.5-61.5-21.5c-8.3-21.1-20.3-26.7-20.3-26.7c-16.6-11.3,1.2-11.1,1.2-11.1
		c18.3,1.3,28,18.8,28,18.8c16.3,27.9,42.7,19.8,53.1,15.2c1.6-11.8,6.4-19.8,11.6-24.4C108.7,258.5,66,242.9,66,173
		c0-19.9,7.1-36.2,18.8-49c-1.9-4.6-8.1-23.2,1.8-48.3c0,0,15.3-4.9,50.2,18.7c14.6-4,30.2-6.1,45.7-6.1c15.5,0.1,31.1,2.1,45.7,6.1
		c34.8-23.6,50.1-18.7,50.1-18.7c9.9,25.1,3.7,43.7,1.8,48.3c11.7,12.8,18.8,29.1,18.8,49c0,70.1-42.7,85.5-83.3,90
		c6.5,5.7,12.4,16.8,12.4,33.8c0,24.4-0.2,44.1-0.2,50.1c0,4.9,3.3,10.5,12.5,8.8C312.8,331.5,365,263.1,365,182.5
		C365,81.7,283.3,0,182.5,0z"/>
</g>
<rect x="81" y="320.9" class="st1" width="195.2" height="34.3"/>
<rect x="81" y="320.9" class="st1" width="195.2" height="34.3"/>
<rect x="81" y="321.1" class="st1" width="195.2" height="34.3"/>
<rect x="80.7" y="321.2" class="st1" width="195.2" height="34.3"/>
<rect x="38.8" y="51.3" class="st1" width="274" height="288.3"/>
<text transform="matrix(1 0 0 1 50.5002 247.4927)" class="st2 st3 st4">CV</text>
</svg>
