<?xml version="1.0" encoding="utf-8"?>
<!-- Generator: Adobe Illustrator 20.1.0, SVG Export Plug-In . SVG Version: 6.00 Build 0)  -->
<svg version="1.1" id="Layer_1" xmlns="http://www.w3.org/2000/svg" xmlns:xlink="http://www.w3.org/1999/xlink" x="0px" y="0px"
	 viewBox="0 0 96 96" style="enable-background:new 0 0 96 96;" xml:space="preserve">
<style type="text/css">
	.st0{fill:#FFFFFF;}
</style>
<g id="XMLID_2_">
	<path id="XMLID_7_" class="st0" d="M65.2,20.5c2.8,0,5.3,1,7.3,3s3,4.4,3,7.3v34.4c0,2.8-1,5.3-3,7.3s-4.4,3-7.3,3H30.8
		c-2.8,0-5.3-1-7.3-3s-3-4.4-3-7.3V30.8c0-2.8,1-5.3,3-7.3s4.4-3,7.3-3H65.2z M66.3,58.3V42.7c-0.7,0.8-1.5,1.5-2.3,2
		c-0.8,0.5-2.4,1.5-4.7,3c-2.4,1.5-4.2,2.7-5.4,3.5c-2.3,1.6-4.3,2.5-5.9,2.5c-1.6,0-3.5-0.8-5.9-2.5c-1.1-0.8-2.8-1.9-5.1-3.3
		c-2.3-1.4-4-2.5-5.1-3.3c-0.3-0.2-0.7-0.5-1.2-1s-0.9-0.8-1.1-1v15.6c0,1,0.3,1.8,1,2.4s1.5,1,2.4,1h29.8c1,0,1.8-0.3,2.4-1
		C66,60.1,66.3,59.3,66.3,58.3z M66.3,37.8c0-1-0.3-1.8-1-2.5s-1.5-1-2.5-1H33.1c-1,0-1.8,0.3-2.4,1s-1,1.5-1,2.4s0.4,1.8,1.1,2.7
		s1.5,1.7,2.4,2.3c1.1,0.8,2.8,1.8,4.9,3.2c2.2,1.4,3.7,2.4,4.6,3c0.1,0,0.3,0.2,0.6,0.4s0.6,0.4,0.8,0.5s0.4,0.3,0.8,0.5
		c0.3,0.2,0.6,0.4,0.8,0.5s0.5,0.2,0.8,0.3s0.6,0.2,0.8,0.3c0.3,0.1,0.5,0.1,0.7,0.1s0.5,0,0.7-0.1c0.3-0.1,0.5-0.1,0.8-0.3
		c0.3-0.1,0.5-0.2,0.8-0.3c0.2-0.1,0.5-0.3,0.8-0.5s0.6-0.4,0.8-0.5s0.4-0.3,0.8-0.5c0.3-0.2,0.5-0.4,0.6-0.4l9.6-6.2
		c0.8-0.5,1.6-1.3,2.4-2.2C66,39.5,66.3,38.6,66.3,37.8z"/>
</g>
</svg>
